<svg width="14" height="15" viewBox="0 0 14 15" fill="none" xmlns="http://www.w3.org/2000/svg">
  <path fill-rule="evenodd" clip-rule="evenodd"
        d="M9.1875 2.5H4.8125H3.5H0.65625C0.293813 2.5 0 2.79381 0 3.15625C0 3.51869 0.293813 3.8125 0.65625 3.8125H1.75V13C1.75 13.9665 2.5335 14.75 3.5 14.75H10.5C11.4665 14.75 12.25 13.9665 12.25 13V3.8125H13.3438C13.7062 3.8125 14 3.51869 14 3.15625C14 2.79381 13.7062 2.5 13.3438 2.5H10.5H9.1875ZM3.0625 3.8125V13C3.0625 13.2416 3.25838 13.4375 3.5 13.4375H10.5C10.7416 13.4375 10.9375 13.2416 10.9375 13V3.8125H3.0625Z"
        fill="black"/>
  <path fill-rule="evenodd" clip-rule="evenodd"
        d="M3.0625 13V3.8125H10.9375V13C10.9375 13.2416 10.7416 13.4375 10.5 13.4375H3.5C3.25838 13.4375 3.0625 13.2416 3.0625 13ZM4.8125 6.21875C4.8125 5.85631 5.10631 5.5625 5.46875 5.5625C5.83119 5.5625 6.125 5.85631 6.125 6.21875V11.0312C6.125 11.3937 5.83119 11.6875 5.46875 11.6875C5.10631 11.6875 4.8125 11.3937 4.8125 11.0312V6.21875ZM8.53125 5.5625C8.16881 5.5625 7.875 5.85631 7.875 6.21875V11.0312C7.875 11.3937 8.16881 11.6875 8.53125 11.6875C8.89369 11.6875 9.1875 11.3937 9.1875 11.0312V6.21875C9.1875 5.85631 8.89369 5.5625 8.53125 5.5625Z"
        fill="black"/>
  <rect x="4" width="6" height="1.5" rx="0.75" fill="black"/>
  <rect y="2.5" width="14" height="1.5" rx="0.75" fill="black"/>
</svg>
